<mxfile host="app.diagrams.net" agent="Mozilla/5.0 (Windows NT 10.0; Win64; x64) AppleWebKit/537.36 (KHTML, like Gecko) Chrome/127.0.0.0 Safari/537.36 Edg/127.0.0.0" version="24.7.7">
  <diagram name="Página-1" id="fbKrgl6ex-JQyzwefEKs">
    <mxGraphModel dx="1869" dy="575" grid="1" gridSize="10" guides="1" tooltips="1" connect="1" arrows="1" fold="1" page="1" pageScale="1" pageWidth="827" pageHeight="1169" math="0" shadow="0">
      <root>
        <mxCell id="0" />
        <mxCell id="1" parent="0" />
        <mxCell id="KQILi5NAHvfBUOCa5aBi-2" value="Documentação Técnica Relatório" style="text;html=1;align=center;verticalAlign=middle;resizable=0;points=[];autosize=1;strokeColor=none;fillColor=none;fontSize=20;" vertex="1" parent="1">
          <mxGeometry x="135" y="270" width="320" height="40" as="geometry" />
        </mxCell>
        <mxCell id="KQILi5NAHvfBUOCa5aBi-5" value="" style="edgeStyle=orthogonalEdgeStyle;rounded=0;orthogonalLoop=1;jettySize=auto;html=1;" edge="1" parent="1" target="KQILi5NAHvfBUOCa5aBi-4">
          <mxGeometry relative="1" as="geometry">
            <mxPoint x="340" y="444" as="sourcePoint" />
          </mxGeometry>
        </mxCell>
        <mxCell id="KQILi5NAHvfBUOCa5aBi-4" value="QUEUE.RELATORIO (RabbitMQ)&lt;div&gt;&lt;br&gt;&lt;/div&gt;" style="sketch=0;outlineConnect=0;fontColor=#232F3E;gradientColor=none;strokeColor=#232F3E;fillColor=#ffffff;dashed=0;verticalLabelPosition=bottom;verticalAlign=top;align=center;html=1;fontSize=12;fontStyle=0;aspect=fixed;shape=mxgraph.aws4.resourceIcon;resIcon=mxgraph.aws4.queue;" vertex="1" parent="1">
          <mxGeometry x="135" y="414" width="60" height="60" as="geometry" />
        </mxCell>
        <mxCell id="KQILi5NAHvfBUOCa5aBi-9" style="edgeStyle=orthogonalEdgeStyle;rounded=0;orthogonalLoop=1;jettySize=auto;html=1;" edge="1" parent="1" source="KQILi5NAHvfBUOCa5aBi-6" target="KQILi5NAHvfBUOCa5aBi-4">
          <mxGeometry relative="1" as="geometry">
            <mxPoint x="40" y="440" as="targetPoint" />
            <Array as="points">
              <mxPoint x="40" y="639" />
              <mxPoint x="40" y="444" />
            </Array>
          </mxGeometry>
        </mxCell>
        <mxCell id="KQILi5NAHvfBUOCa5aBi-11" value="Routing Key:&amp;nbsp;produce_start" style="edgeLabel;html=1;align=center;verticalAlign=middle;resizable=0;points=[];" vertex="1" connectable="0" parent="KQILi5NAHvfBUOCa5aBi-9">
          <mxGeometry x="-0.5787" y="1" relative="1" as="geometry">
            <mxPoint x="-17" y="-90" as="offset" />
          </mxGeometry>
        </mxCell>
        <mxCell id="KQILi5NAHvfBUOCa5aBi-6" value="EXG.RELATORIO (RabbitMQ)&lt;div&gt;&lt;br&gt;&lt;/div&gt;" style="sketch=0;outlineConnect=0;dashed=0;verticalLabelPosition=bottom;verticalAlign=top;align=center;html=1;fontSize=12;fontStyle=0;aspect=fixed;pointerEvents=1;shape=mxgraph.aws4.data_exchange_for_apis;fillColor=#232F3E;strokeColor=#2000BF;" vertex="1" parent="1">
          <mxGeometry x="138" y="610" width="54" height="54" as="geometry" />
        </mxCell>
        <mxCell id="KQILi5NAHvfBUOCa5aBi-28" value="" style="edgeStyle=orthogonalEdgeStyle;rounded=0;orthogonalLoop=1;jettySize=auto;html=1;" edge="1" parent="1" source="KQILi5NAHvfBUOCa5aBi-14" target="KQILi5NAHvfBUOCa5aBi-27">
          <mxGeometry relative="1" as="geometry" />
        </mxCell>
        <mxCell id="KQILi5NAHvfBUOCa5aBi-14" value="ApplicationService" style="swimlane;fontStyle=0;childLayout=stackLayout;horizontal=1;startSize=30;horizontalStack=0;resizeParent=1;resizeParentMax=0;resizeLast=0;collapsible=1;marginBottom=0;whiteSpace=wrap;html=1;" vertex="1" parent="1">
          <mxGeometry x="340" y="400" width="280" height="150" as="geometry">
            <mxRectangle x="340" y="400" width="140" height="30" as="alternateBounds" />
          </mxGeometry>
        </mxCell>
        <mxCell id="KQILi5NAHvfBUOCa5aBi-15" value="Service: RelatorioService" style="text;strokeColor=none;fillColor=none;align=left;verticalAlign=middle;spacingLeft=4;spacingRight=4;overflow=hidden;points=[[0,0.5],[1,0.5]];portConstraint=eastwest;rotatable=0;whiteSpace=wrap;html=1;" vertex="1" parent="KQILi5NAHvfBUOCa5aBi-14">
          <mxGeometry y="30" width="280" height="30" as="geometry" />
        </mxCell>
        <mxCell id="KQILi5NAHvfBUOCa5aBi-16" value="Método: GerarRelatorioDesempenhoAsync" style="text;strokeColor=none;fillColor=none;align=left;verticalAlign=middle;spacingLeft=4;spacingRight=4;overflow=hidden;points=[[0,0.5],[1,0.5]];portConstraint=eastwest;rotatable=0;whiteSpace=wrap;html=1;" vertex="1" parent="KQILi5NAHvfBUOCa5aBi-14">
          <mxGeometry y="60" width="280" height="30" as="geometry" />
        </mxCell>
        <mxCell id="KQILi5NAHvfBUOCa5aBi-26" value="Descrição: busca no repositório dapper as informações para compor o relatório e adiciona o resultado desse relatório em cache durante 50 minutos" style="text;strokeColor=none;fillColor=none;align=left;verticalAlign=middle;spacingLeft=4;spacingRight=4;overflow=hidden;points=[[0,0.5],[1,0.5]];portConstraint=eastwest;rotatable=0;whiteSpace=wrap;html=1;" vertex="1" parent="KQILi5NAHvfBUOCa5aBi-14">
          <mxGeometry y="90" width="280" height="60" as="geometry" />
        </mxCell>
        <mxCell id="KQILi5NAHvfBUOCa5aBi-27" value="Redis Cache" style="shape=cylinder3;whiteSpace=wrap;html=1;boundedLbl=1;backgroundOutline=1;size=15;fillColor=none;" vertex="1" parent="1">
          <mxGeometry x="450" y="650" width="60" height="80" as="geometry" />
        </mxCell>
        <mxCell id="KQILi5NAHvfBUOCa5aBi-49" style="edgeStyle=orthogonalEdgeStyle;rounded=0;orthogonalLoop=1;jettySize=auto;html=1;entryX=0.5;entryY=1;entryDx=0;entryDy=0;" edge="1" parent="1" source="KQILi5NAHvfBUOCa5aBi-29" target="KQILi5NAHvfBUOCa5aBi-34">
          <mxGeometry relative="1" as="geometry" />
        </mxCell>
        <mxCell id="KQILi5NAHvfBUOCa5aBi-29" value="Usuario" style="shape=umlActor;verticalLabelPosition=bottom;verticalAlign=top;html=1;outlineConnect=0;" vertex="1" parent="1">
          <mxGeometry x="3" y="1202" width="50" height="60" as="geometry" />
        </mxCell>
        <mxCell id="KQILi5NAHvfBUOCa5aBi-34" value="Pedir para Gerar Relatório" style="ellipse;whiteSpace=wrap;html=1;fillColor=none;" vertex="1" parent="1">
          <mxGeometry x="-32" y="1020" width="120" height="80" as="geometry" />
        </mxCell>
        <mxCell id="KQILi5NAHvfBUOCa5aBi-43" style="edgeStyle=orthogonalEdgeStyle;rounded=0;orthogonalLoop=1;jettySize=auto;html=1;entryX=0;entryY=0.5;entryDx=0;entryDy=0;" edge="1" parent="1" source="KQILi5NAHvfBUOCa5aBi-35" target="KQILi5NAHvfBUOCa5aBi-40">
          <mxGeometry relative="1" as="geometry" />
        </mxCell>
        <mxCell id="KQILi5NAHvfBUOCa5aBi-35" value="Obter Relatório" style="ellipse;whiteSpace=wrap;html=1;fillColor=none;" vertex="1" parent="1">
          <mxGeometry x="208" y="1182" width="120" height="80" as="geometry" />
        </mxCell>
        <mxCell id="KQILi5NAHvfBUOCa5aBi-36" style="edgeStyle=orthogonalEdgeStyle;rounded=0;orthogonalLoop=1;jettySize=auto;html=1;exitX=0.5;exitY=1;exitDx=0;exitDy=0;" edge="1" parent="1">
          <mxGeometry relative="1" as="geometry">
            <mxPoint x="28" y="1122" as="sourcePoint" />
            <mxPoint x="28" y="1122" as="targetPoint" />
          </mxGeometry>
        </mxCell>
        <mxCell id="KQILi5NAHvfBUOCa5aBi-38" value="WebApi" style="swimlane;fontStyle=0;childLayout=stackLayout;horizontal=1;startSize=30;horizontalStack=0;resizeParent=1;resizeParentMax=0;resizeLast=0;collapsible=1;marginBottom=0;whiteSpace=wrap;html=1;" vertex="1" parent="1">
          <mxGeometry x="450" y="1147" width="280" height="190" as="geometry">
            <mxRectangle x="340" y="400" width="140" height="30" as="alternateBounds" />
          </mxGeometry>
        </mxCell>
        <mxCell id="KQILi5NAHvfBUOCa5aBi-39" value="Controller: RelatorioController" style="text;strokeColor=none;fillColor=none;align=left;verticalAlign=middle;spacingLeft=4;spacingRight=4;overflow=hidden;points=[[0,0.5],[1,0.5]];portConstraint=eastwest;rotatable=0;whiteSpace=wrap;html=1;" vertex="1" parent="KQILi5NAHvfBUOCa5aBi-38">
          <mxGeometry y="30" width="280" height="30" as="geometry" />
        </mxCell>
        <mxCell id="KQILi5NAHvfBUOCa5aBi-40" value="Endpoint: [HttpGet(&quot;Obter&quot;)]" style="text;strokeColor=none;fillColor=none;align=left;verticalAlign=middle;spacingLeft=4;spacingRight=4;overflow=hidden;points=[[0,0.5],[1,0.5]];portConstraint=eastwest;rotatable=0;whiteSpace=wrap;html=1;" vertex="1" parent="KQILi5NAHvfBUOCa5aBi-38">
          <mxGeometry y="60" width="280" height="30" as="geometry" />
        </mxCell>
        <mxCell id="KQILi5NAHvfBUOCa5aBi-41" value="Descrição: chama o Application Service responsável e esse service obtém o resultado do relátorio que está armazenado no redis caso não tenha nada no cache entende-se que não foi efetuado o pedido de geração do relatório ou aconteceu algum erro no processo.&amp;nbsp;" style="text;strokeColor=none;fillColor=none;align=left;verticalAlign=middle;spacingLeft=4;spacingRight=4;overflow=hidden;points=[[0,0.5],[1,0.5]];portConstraint=eastwest;rotatable=0;whiteSpace=wrap;html=1;" vertex="1" parent="KQILi5NAHvfBUOCa5aBi-38">
          <mxGeometry y="90" width="280" height="100" as="geometry" />
        </mxCell>
        <mxCell id="KQILi5NAHvfBUOCa5aBi-42" style="edgeStyle=orthogonalEdgeStyle;rounded=0;orthogonalLoop=1;jettySize=auto;html=1;entryX=0.017;entryY=0.625;entryDx=0;entryDy=0;entryPerimeter=0;" edge="1" parent="1" source="KQILi5NAHvfBUOCa5aBi-29" target="KQILi5NAHvfBUOCa5aBi-35">
          <mxGeometry relative="1" as="geometry" />
        </mxCell>
        <mxCell id="KQILi5NAHvfBUOCa5aBi-44" style="edgeStyle=orthogonalEdgeStyle;rounded=0;orthogonalLoop=1;jettySize=auto;html=1;entryX=0.5;entryY=1;entryDx=0;entryDy=0;entryPerimeter=0;" edge="1" parent="1" source="KQILi5NAHvfBUOCa5aBi-38" target="KQILi5NAHvfBUOCa5aBi-27">
          <mxGeometry relative="1" as="geometry" />
        </mxCell>
        <mxCell id="KQILi5NAHvfBUOCa5aBi-52" style="edgeStyle=orthogonalEdgeStyle;rounded=0;orthogonalLoop=1;jettySize=auto;html=1;" edge="1" parent="1" source="KQILi5NAHvfBUOCa5aBi-45" target="KQILi5NAHvfBUOCa5aBi-6">
          <mxGeometry relative="1" as="geometry">
            <mxPoint x="260" y="640" as="targetPoint" />
            <Array as="points">
              <mxPoint x="261" y="835" />
              <mxPoint x="261" y="637" />
            </Array>
          </mxGeometry>
        </mxCell>
        <mxCell id="KQILi5NAHvfBUOCa5aBi-45" value="WebApi" style="swimlane;fontStyle=0;childLayout=stackLayout;horizontal=1;startSize=30;horizontalStack=0;resizeParent=1;resizeParentMax=0;resizeLast=0;collapsible=1;marginBottom=0;whiteSpace=wrap;html=1;" vertex="1" parent="1">
          <mxGeometry x="-130" y="760" width="280" height="150" as="geometry">
            <mxRectangle x="340" y="400" width="140" height="30" as="alternateBounds" />
          </mxGeometry>
        </mxCell>
        <mxCell id="KQILi5NAHvfBUOCa5aBi-46" value="Controller: RelatorioController" style="text;strokeColor=none;fillColor=none;align=left;verticalAlign=middle;spacingLeft=4;spacingRight=4;overflow=hidden;points=[[0,0.5],[1,0.5]];portConstraint=eastwest;rotatable=0;whiteSpace=wrap;html=1;" vertex="1" parent="KQILi5NAHvfBUOCa5aBi-45">
          <mxGeometry y="30" width="280" height="30" as="geometry" />
        </mxCell>
        <mxCell id="KQILi5NAHvfBUOCa5aBi-47" value="Endpoint: [HttpPost(&quot;Gerar&quot;)]" style="text;strokeColor=none;fillColor=none;align=left;verticalAlign=middle;spacingLeft=4;spacingRight=4;overflow=hidden;points=[[0,0.5],[1,0.5]];portConstraint=eastwest;rotatable=0;whiteSpace=wrap;html=1;" vertex="1" parent="KQILi5NAHvfBUOCa5aBi-45">
          <mxGeometry y="60" width="280" height="30" as="geometry" />
        </mxCell>
        <mxCell id="KQILi5NAHvfBUOCa5aBi-48" value="Descrição: chama o applicationService responsável e ele publica uma mensagem na EXG.RELATORIO COM a RoutinKey produce_start" style="text;strokeColor=none;fillColor=none;align=left;verticalAlign=middle;spacingLeft=4;spacingRight=4;overflow=hidden;points=[[0,0.5],[1,0.5]];portConstraint=eastwest;rotatable=0;whiteSpace=wrap;html=1;" vertex="1" parent="KQILi5NAHvfBUOCa5aBi-45">
          <mxGeometry y="90" width="280" height="60" as="geometry" />
        </mxCell>
        <mxCell id="KQILi5NAHvfBUOCa5aBi-53" style="edgeStyle=orthogonalEdgeStyle;rounded=0;orthogonalLoop=1;jettySize=auto;html=1;entryX=0.564;entryY=1.013;entryDx=0;entryDy=0;entryPerimeter=0;" edge="1" parent="1" source="KQILi5NAHvfBUOCa5aBi-34" target="KQILi5NAHvfBUOCa5aBi-48">
          <mxGeometry relative="1" as="geometry" />
        </mxCell>
      </root>
    </mxGraphModel>
  </diagram>
</mxfile>
